# xmcd
#
# Track frame offsets: 
#        150
#        19725
#        41201
#        75528
#        94803
#        114233
#        132249
#        161112
#        183278
#        206508
#
# Disc length: 2994 seconds
#
# Revision: 1
# Processed by: cddbd v1.5.2PL0 Copyright (c) Steve Scherf et al.
# Submitted via: ExactAudioCopy v1.0b3
#
DISCID=7d0bb00a
DTITLE=Eddie Higgins With Strings  - Moonlight Becomes You
DYEAR=2003
DGENRE=Jazz
TTITLE0=What Is There To Say
TTITLE1=Moonlight Becomes You
TTITLE2=The Folks Who Live On The Hill
TTITLE3=If I Should Lose You
TTITLE4=How Deep Is The Ocean
TTITLE5=Have You Met Miss Jones?
TTITLE6=I'll Be Around
TTITLE7=The Nearness Of You
TTITLE8=Be Careful, It's My Heart
TTITLE9=When April Comes
EXTD=YEAR: 2003
EXTT0=
EXTT1=
EXTT2=
EXTT3=
EXTT4=
EXTT5=
EXTT6=
EXTT7=
EXTT8=
EXTT9=
PLAYORDER=
